# xmcd CD database file
#
# Track frame offsets:
#	183
#	8825
#	17293
#	36105
#	51538
#	65723
#	82898
#	107663
#	119045
#	135098
#	159573
#	171240
#	192855
#	204585
#	230608
#
# Disc length: 3274 seconds
#
# Revision: 29
# Processed by: cddbd v1.5.2PL0 Copyright (c) Steve Scherf et al.
# Submitted via: CDex 1.78
#
DISCID=c40cc80f
DTITLE=John Eliot Gardiner - English Baroque Soloists - 1985 - Bach, Messe in h-moll - Gardiner - CD2
DYEAR=1985
DGENRE=Baroque
TTITLE0=Credo - Chorus
TTITLE1=Credo - Chorus
TTITLE2=Credo - Duet
TTITLE3=Credo - Chorus
TTITLE4=Credo - Chorus
TTITLE5=Credo - Chorus
TTITLE6=Credo - Aria (Bass)
TTITLE7=Credo - Chorus
TTITLE8=Credo - Chorus
TTITLE9=Sanctus - Chorus
TTITLE10=Sanctus - Chorus
TTITLE11=Sanctus - Aria (Tenor)
TTITLE12=Sanctus - Chorus (da capo)
TTITLE13=Agnus Dei - Aria (Alto)
TTITLE14=Agnus Dei - Chorus
EXTD=Publisher: Archiv Produktion - Polydor\n\n2nd of 2 CDs YEAR: 1985
EXTT0=
EXTT1=
EXTT2=
EXTT3=
EXTT4=
EXTT5=
EXTT6=
EXTT7=
EXTT8=
EXTT9=
EXTT10=
EXTT11=
EXTT12=
EXTT13=
EXTT14=
PLAYORDER=
